<?xml version="1.0" encoding="UTF-8"?>
<svg xmlns="http://www.w3.org/2000/svg" xmlns:xlink="http://www.w3.org/1999/xlink" width="100px" height="100px" viewBox="0 0 100 100" version="1.1">
<g id="surface1">
<path style=" stroke:none;fill-rule:evenodd;fill:rgb(87.843137%,13.72549%,30.588235%);fill-opacity:1;" d="M 57.953125 1.660156 C 57.269531 1.660156 56.636719 1.8125 56.050781 2.011719 C 57.296875 2.871094 57.980469 4.011719 58.320312 5.300781 C 58.34375 5.476562 58.394531 5.601562 58.417969 5.78125 C 58.441406 5.933594 58.46875 6.082031 58.46875 6.234375 C 58.566406 8.460938 57.90625 8.738281 57.441406 10.054688 C 56.734375 11.746094 56.929688 13.566406 57.785156 15.035156 C 57.855469 15.210938 57.953125 15.414062 58.078125 15.589844 C 57.148438 9.191406 62.300781 8.230469 63.253906 6.234375 C 63.328125 4.492188 61.933594 3.328125 60.835938 2.519531 C 59.785156 1.859375 58.832031 1.660156 57.953125 1.660156 Z M 65.722656 3.101562 C 65.625 3.683594 65.695312 3.53125 65.671875 3.832031 C 65.648438 4.035156 65.648438 4.289062 65.625 4.492188 C 65.574219 4.691406 65.527344 4.894531 65.453125 5.097656 C 65.402344 5.300781 65.332031 5.5 65.257812 5.703125 C 65.160156 5.90625 65.085938 6.082031 64.988281 6.285156 C 64.914062 6.386719 64.867188 6.488281 64.792969 6.589844 L 64.648438 6.816406 C 64.523438 6.992188 64.402344 7.171875 64.28125 7.324219 C 64.132812 7.472656 64.011719 7.652344 63.839844 7.777344 L 63.839844 7.804688 C 63.695312 7.929688 63.546875 8.082031 63.375 8.207031 C 62.863281 8.613281 62.277344 8.914062 61.738281 9.292969 C 61.570312 9.421875 61.398438 9.523438 61.25 9.671875 C 61.082031 9.800781 60.933594 9.925781 60.789062 10.078125 C 60.617188 10.230469 60.496094 10.382812 60.347656 10.558594 C 60.226562 10.710938 60.078125 10.886719 59.980469 11.0625 C 59.859375 11.242188 59.738281 11.417969 59.640625 11.59375 C 59.542969 11.796875 59.46875 11.972656 59.371094 12.175781 C 59.296875 12.378906 59.226562 12.554688 59.175781 12.757812 C 59.109375 12.964844 59.054688 13.175781 59.003906 13.390625 C 58.980469 13.492188 58.980469 13.617188 58.957031 13.71875 C 58.929688 13.820312 58.929688 13.921875 58.90625 14.023438 C 58.90625 14.222656 58.882812 14.453125 58.882812 14.65625 C 58.882812 14.804688 58.882812 14.957031 58.90625 15.109375 C 58.90625 15.3125 58.933594 15.515625 58.980469 15.742188 C 59.003906 15.945312 59.054688 16.144531 59.101562 16.347656 C 59.175781 16.550781 59.226562 16.753906 59.296875 16.953125 C 59.347656 17.082031 59.421875 17.207031 59.46875 17.308594 L 53.851562 15.058594 C 52.898438 14.78125 51.972656 14.527344 51.019531 14.300781 L 49.480469 13.921875 C 48.011719 13.617188 46.527344 13.390625 45.035156 13.238281 C 44.984375 13.238281 44.960938 13.214844 44.914062 13.214844 C 43.449219 13.0625 42.007812 12.984375 40.542969 12.984375 C 39.464844 12.984375 38.390625 13.035156 37.339844 13.113281 C 35.851562 13.214844 34.363281 13.414062 32.871094 13.667969 C 32.503906 13.71875 32.140625 13.792969 31.773438 13.871094 C 31.015625 14.023438 30.285156 14.199219 29.574219 14.375 L 28.476562 14.679688 C 28.109375 14.832031 27.769531 15.007812 27.425781 15.160156 L 26.621094 15.539062 C 26.570312 15.566406 26.523438 15.566406 26.496094 15.589844 C 26.253906 15.714844 26.035156 15.816406 25.8125 15.945312 C 25.742188 15.96875 25.691406 15.996094 25.644531 16.019531 C 25.375 16.144531 25.105469 16.296875 24.886719 16.425781 C 24.714844 16.5 24.542969 16.601562 24.398438 16.675781 C 24.324219 16.726562 24.226562 16.777344 24.175781 16.804688 C 23.957031 16.929688 23.738281 17.054688 23.542969 17.183594 C 23.324219 17.308594 23.128906 17.433594 22.957031 17.5625 C 22.785156 17.6875 22.613281 17.789062 22.46875 17.914062 C 22.445312 17.941406 22.417969 17.941406 22.394531 17.964844 C 22.25 18.066406 22.078125 18.195312 21.929688 18.320312 L 21.882812 18.371094 L 21.515625 18.675781 C 21.464844 18.699219 21.417969 18.75 21.367188 18.773438 C 21.246094 18.875 21.125 19.003906 21.003906 19.105469 C 20.976562 19.15625 20.929688 19.179688 20.90625 19.207031 C 20.757812 19.355469 20.613281 19.484375 20.464844 19.632812 C 20.441406 19.632812 20.441406 19.660156 20.417969 19.6875 C 20.269531 19.8125 20.125 19.964844 19.976562 20.113281 C 19.953125 20.140625 19.953125 20.167969 19.929688 20.167969 C 19.800781 20.292969 19.675781 20.429688 19.5625 20.570312 C 19.511719 20.621094 19.441406 20.671875 19.390625 20.722656 C 19.269531 20.875 19.121094 21.023438 18.976562 21.175781 C 18.949219 21.226562 18.902344 21.253906 18.878906 21.304688 C 18.683594 21.503906 18.511719 21.707031 18.316406 21.910156 L 18.242188 21.984375 C 17.851562 22.414062 17.4375 22.847656 16.996094 23.226562 C 16.5625 23.625 16.109375 23.996094 15.628906 24.335938 C 15.15625 24.679688 14.667969 25 14.164062 25.296875 C 13.664062 25.582031 13.152344 25.835938 12.625 26.058594 C 12.105469 26.285156 11.578125 26.488281 11.039062 26.664062 C 10.011719 26.890625 8.960938 27.320312 8.058594 27.398438 C 7.863281 27.398438 7.644531 27.449219 7.449219 27.472656 C 7.226562 27.523438 7.03125 27.574219 6.835938 27.625 L 6.25 27.851562 C 6.054688 27.925781 5.859375 28.027344 5.664062 28.128906 C 5.492188 28.257812 5.296875 28.355469 5.128906 28.484375 C 4.957031 28.609375 4.785156 28.761719 4.640625 28.914062 C 4.46875 29.039062 4.296875 29.21875 4.152344 29.367188 C 4.003906 29.546875 3.859375 29.699219 3.734375 29.875 C 3.613281 30.078125 3.46875 30.253906 3.367188 30.457031 C 3.246094 30.632812 3.125 30.835938 3.027344 31.039062 C 2.929688 31.265625 2.832031 31.46875 2.757812 31.695312 C 2.679688 31.914062 2.609375 32.132812 2.539062 32.351562 C 2.488281 32.554688 2.441406 32.757812 2.417969 32.957031 C 2.417969 32.984375 2.390625 33.007812 2.390625 33.035156 C 2.34375 33.261719 2.34375 33.566406 2.320312 33.71875 C 2.292969 33.894531 2.269531 34.046875 2.269531 34.222656 C 2.269531 34.324219 2.269531 34.449219 2.292969 34.550781 C 2.320312 34.730469 2.34375 34.878906 2.390625 35.03125 C 2.441406 35.183594 2.488281 35.335938 2.5625 35.488281 L 2.5625 35.511719 C 2.636719 35.664062 2.734375 35.816406 2.832031 35.96875 C 2.929688 36.117188 3.027344 36.269531 3.148438 36.421875 C 3.273438 36.550781 3.417969 36.699219 3.566406 36.828125 C 3.710938 36.980469 3.859375 37.105469 4.027344 37.230469 C 4.613281 37.761719 4.761719 37.941406 5.519531 38.34375 C 5.640625 38.421875 5.761719 38.46875 5.910156 38.546875 C 5.933594 38.546875 5.957031 38.570312 5.984375 38.570312 C 5.984375 38.621094 5.984375 38.648438 6.007812 38.699219 C 6.03125 38.902344 6.082031 39.101562 6.128906 39.304688 C 6.175781 39.511719 6.242188 39.714844 6.324219 39.910156 C 6.398438 40.0625 6.445312 40.214844 6.519531 40.367188 C 6.542969 40.417969 6.570312 40.46875 6.59375 40.492188 C 6.691406 40.695312 6.789062 40.871094 6.886719 41.050781 L 7.253906 41.582031 C 7.375 41.730469 7.519531 41.910156 7.667969 42.0625 C 7.8125 42.210938 7.960938 42.339844 8.132812 42.492188 C 8.132812 42.492188 8.15625 42.515625 8.179688 42.515625 C 8.328125 42.640625 8.472656 42.769531 8.621094 42.871094 C 8.792969 42.996094 8.960938 43.097656 9.15625 43.199219 C 9.328125 43.300781 9.523438 43.402344 9.71875 43.476562 C 9.867188 43.550781 10.035156 43.601562 10.207031 43.652344 C 10.230469 43.679688 10.257812 43.679688 10.304688 43.703125 C 10.402344 43.730469 10.523438 43.753906 10.621094 43.78125 C 10.550781 45.144531 10.523438 46.433594 10.722656 46.890625 C 10.941406 47.394531 12.015625 45.851562 13.089844 44.082031 C 12.941406 45.828125 12.84375 47.875 13.089844 48.480469 C 13.359375 49.113281 14.824219 47.144531 16.09375 44.96875 C 33.410156 40.820312 49.210938 53.210938 50.871094 70.707031 C 50.554688 67.976562 47.304688 66.457031 45.816406 66.835938 C 45.085938 68.707031 43.839844 71.109375 41.835938 72.601562 C 42.011719 70.914062 41.929688 69.207031 41.589844 67.546875 C 41.054688 69.871094 40.003906 72.046875 38.5625 73.917969 C 36.242188 74.09375 33.921875 72.929688 32.703125 71.1875 C 32.605469 71.109375 32.578125 70.960938 32.507812 70.859375 C 32.433594 70.679688 32.359375 70.503906 32.3125 70.328125 C 32.238281 70.15625 32.191406 69.980469 32.164062 69.796875 C 32.140625 69.617188 32.140625 69.441406 32.140625 69.238281 L 32.140625 68.859375 C 32.164062 68.683594 32.214844 68.507812 32.261719 68.328125 C 32.3125 68.152344 32.359375 67.976562 32.433594 67.796875 C 32.53125 67.621094 32.605469 67.445312 32.726562 67.269531 C 33.140625 66.054688 33.140625 65.066406 32.382812 64.488281 C 32.238281 64.386719 32.082031 64.300781 31.921875 64.234375 C 31.820312 64.207031 31.699219 64.15625 31.601562 64.132812 C 31.527344 64.105469 31.480469 64.082031 31.40625 64.058594 C 31.234375 64.007812 31.066406 63.957031 30.894531 63.929688 C 30.726562 63.878906 30.554688 63.855469 30.382812 63.855469 C 30.210938 63.828125 30.015625 63.804688 29.84375 63.804688 C 29.722656 63.804688 29.601562 63.828125 29.476562 63.828125 C 29.28125 63.828125 29.113281 63.855469 28.941406 63.90625 C 28.769531 63.929688 28.597656 63.957031 28.425781 64.007812 C 28.257812 64.058594 28.085938 64.109375 27.914062 64.183594 C 27.742188 64.257812 27.597656 64.335938 27.425781 64.410156 C 27.28125 64.488281 27.132812 64.585938 26.960938 64.664062 C 21.273438 68.507812 24.667969 77.507812 28.550781 80.113281 C 27.085938 80.390625 25.59375 80.71875 25.179688 81.046875 L 25.128906 81.097656 C 26.179688 81.753906 27.28125 82.3125 28.425781 82.792969 C 29.992188 83.320312 31.652344 83.800781 32.382812 84.003906 L 32.382812 84.03125 C 34.40625 84.460938 36.476562 84.613281 38.539062 84.484375 C 49.359375 83.703125 58.222656 75.179688 59.835938 63.957031 C 59.882812 64.183594 59.933594 64.386719 59.980469 64.613281 C 60.054688 65.066406 60.152344 65.546875 60.203125 66.027344 L 60.203125 66.054688 C 60.25 66.28125 60.273438 66.507812 60.300781 66.710938 L 60.300781 66.8125 C 60.324219 67.039062 60.347656 67.269531 60.347656 67.46875 C 60.371094 67.75 60.398438 68.027344 60.398438 68.304688 L 60.398438 68.710938 C 60.398438 68.835938 60.421875 68.988281 60.421875 69.113281 C 60.421875 69.265625 60.398438 69.417969 60.398438 69.570312 L 60.398438 69.921875 C 60.398438 70.101562 60.371094 70.25 60.371094 70.429688 C 60.371094 70.527344 60.371094 70.628906 60.347656 70.757812 C 60.347656 70.933594 60.324219 71.109375 60.324219 71.3125 C 60.300781 71.390625 60.300781 71.464844 60.300781 71.539062 C 60.273438 71.742188 60.25 71.921875 60.226562 72.121094 C 60.226562 72.199219 60.226562 72.273438 60.203125 72.351562 C 60.175781 72.601562 60.128906 72.832031 60.105469 73.082031 L 60.105469 73.132812 C 60.054688 73.359375 60.007812 73.613281 59.957031 73.839844 L 59.957031 73.917969 L 59.8125 74.601562 C 59.8125 74.625 59.785156 74.675781 59.785156 74.703125 C 59.738281 74.929688 59.6875 75.15625 59.617188 75.382812 L 59.617188 75.460938 C 59.542969 75.710938 59.46875 75.941406 59.421875 76.167969 C 59.394531 76.191406 59.394531 76.21875 59.394531 76.21875 L 59.175781 76.976562 C 59.078125 77.230469 59.003906 77.457031 58.90625 77.710938 C 58.808594 77.960938 58.734375 78.214844 58.636719 78.441406 C 58.539062 78.695312 58.441406 78.921875 58.34375 79.175781 L 58.320312 79.175781 C 58.222656 79.402344 58.125 79.65625 58.003906 79.882812 C 57.980469 79.960938 57.953125 80.011719 57.929688 80.0625 C 57.90625 80.085938 57.90625 80.113281 57.882812 80.136719 C 56.292969 83.449219 53.949219 86.355469 51.019531 88.632812 C 50.824219 88.757812 50.628906 88.910156 50.433594 89.0625 C 50.382812 89.113281 50.308594 89.136719 50.261719 89.1875 C 50.089844 89.316406 49.917969 89.441406 49.722656 89.566406 L 49.796875 89.71875 L 49.820312 89.71875 L 50.847656 89.566406 L 50.871094 89.566406 C 51.507812 89.464844 52.140625 89.339844 52.777344 89.214844 C 52.949219 89.1875 53.144531 89.136719 53.3125 89.085938 C 53.4375 89.0625 53.535156 89.035156 53.65625 89.011719 C 53.828125 88.984375 54 88.933594 54.167969 88.910156 C 54.316406 88.859375 54.460938 88.835938 54.609375 88.785156 C 57.050781 88.175781 59.421875 87.34375 61.691406 86.355469 C 57.808594 91.84375 52.605469 96.265625 46.523438 99.175781 C 49.332031 98.972656 52.140625 98.492188 54.851562 97.683594 C 64.695312 94.675781 72.976562 87.824219 77.933594 78.59375 C 76.925781 84.449219 74.683594 90 71.363281 94.851562 C 73.730469 93.234375 75.917969 91.351562 77.882812 89.238281 C 83.355469 83.324219 86.945312 75.8125 88.167969 67.75 C 89 71.75 89.238281 75.859375 88.875 79.933594 C 106.507812 54.476562 90.339844 28.078125 83.574219 21.128906 C 83.550781 21.074219 83.527344 21.050781 83.527344 21 C 83.5 21.027344 83.5 21.027344 83.5 21.050781 C 83.5 21.027344 83.5 21.027344 83.476562 21 C 83.476562 21.304688 83.453125 21.605469 83.429688 21.910156 C 83.355469 22.492188 83.28125 23.046875 83.183594 23.605469 C 83.0625 24.160156 82.914062 24.71875 82.769531 25.273438 C 82.59375 25.820312 82.398438 26.359375 82.183594 26.890625 C 81.957031 27.414062 81.714844 27.929688 81.449219 28.433594 C 81.179688 28.914062 80.886719 29.417969 80.570312 29.875 C 80.257812 30.34375 79.921875 30.800781 79.570312 31.238281 C 79.203125 31.695312 78.8125 32.101562 78.421875 32.503906 C 78.191406 32.722656 77.957031 32.933594 77.714844 33.136719 C 77.519531 33.3125 77.347656 33.464844 77.152344 33.640625 C 76.710938 33.996094 76.273438 34.324219 75.785156 34.628906 C 75.320312 34.929688 74.832031 35.234375 74.34375 35.488281 C 73.828125 35.742188 73.316406 35.96875 72.804688 36.195312 C 72.292969 36.398438 71.753906 36.574219 71.214844 36.726562 C 70.675781 36.875 70.128906 37.003906 69.578125 37.105469 C 69.019531 37.207031 68.457031 37.257812 67.917969 37.308594 C 67.527344 37.332031 67.136719 37.359375 66.746094 37.359375 C 66.183594 37.359375 65.625 37.308594 65.085938 37.257812 C 64.523438 37.207031 63.960938 37.132812 63.425781 37.003906 C 62.863281 36.902344 62.328125 36.75 61.789062 36.574219 L 61.765625 36.574219 C 62.300781 36.523438 62.839844 36.472656 63.375 36.371094 C 63.925781 36.273438 64.472656 36.144531 65.011719 35.992188 C 65.550781 35.84375 66.078125 35.664062 66.601562 35.460938 C 67.136719 35.261719 67.652344 35.007812 68.140625 34.753906 C 68.652344 34.5 69.117188 34.222656 69.605469 33.917969 C 70.070312 33.589844 70.53125 33.261719 70.972656 32.910156 C 71.410156 32.554688 71.824219 32.175781 72.21875 31.769531 C 72.632812 31.390625 73 30.960938 73.367188 30.53125 C 73.722656 30.089844 74.066406 29.632812 74.390625 29.167969 C 74.441406 29.089844 74.488281 28.988281 74.539062 28.914062 C 74.78125 28.507812 75.027344 28.105469 75.246094 27.699219 C 75.515625 27.199219 75.757812 26.683594 75.980469 26.15625 C 76.199219 25.628906 76.394531 25.089844 76.566406 24.539062 C 76.734375 24.007812 76.859375 23.453125 76.980469 22.898438 C 77.078125 22.316406 77.175781 21.757812 77.222656 21.203125 C 77.273438 20.621094 77.324219 20.039062 77.324219 19.484375 C 77.324219 19.078125 77.296875 18.675781 77.273438 18.269531 C 77.226562 17.6875 77.152344 17.132812 77.078125 16.574219 C 76.980469 16.003906 76.859375 15.441406 76.710938 14.882812 C 76.539062 14.351562 76.371094 13.792969 76.175781 13.265625 C 75.980469 12.734375 75.734375 12.203125 75.492188 11.695312 C 75.222656 11.191406 74.953125 10.683594 74.660156 10.203125 C 74.347656 9.730469 74.023438 9.265625 73.683594 8.8125 C 73.316406 8.378906 72.941406 7.949219 72.558594 7.523438 C 72.355469 7.308594 72.140625 7.097656 71.925781 6.894531 C 70.832031 6.011719 69.699219 5.1875 68.53125 4.414062 C 68.359375 4.3125 68.210938 4.238281 68.042969 4.164062 C 67.234375 3.632812 66.476562 3.351562 65.722656 3.101562 Z M 65.722656 3.101562 "/>
</g>
</svg>
